<svg width="24" height="24" viewBox="0 0 24 24" fill="none" xmlns="http://www.w3.org/2000/svg">
<path d="M16.1032 2C12.8468 2 10.2067 2.85941 10.2067 3.91975V7.14829C10.2067 7.20848 10.2175 7.26809 10.2355 7.3269C10.5226 8.26214 13.0393 8.99361 16.1032 8.99361C19.1671 8.99361 21.6838 8.26214 21.971 7.3269C21.9889 7.26809 21.9997 7.20848 21.9997 7.14829V3.91975C21.9997 2.85941 19.3597 2 16.1032 2ZM20.9478 4.17428C20.6992 4.34072 20.3302 4.50083 19.8807 4.63742C18.8627 4.94686 17.5211 5.11732 16.1032 5.11732C14.6853 5.11732 13.3437 4.94686 12.3257 4.63742C11.8762 4.50083 11.5072 4.34072 11.2586 4.17428C11.0669 4.04611 11.0022 3.94995 10.9915 3.91975C11.0022 3.88964 11.0669 3.79351 11.2586 3.66521C11.5072 3.49887 11.8762 3.33875 12.3257 3.20207C13.3437 2.89261 14.6853 2.72214 16.1032 2.72214C17.5211 2.72214 18.8627 2.89261 19.8808 3.20207C20.3302 3.33875 20.6992 3.49887 20.9478 3.66521C21.1395 3.79351 21.2042 3.88964 21.2149 3.91975C21.2042 3.94983 21.1395 4.04611 20.9478 4.17428ZM18.7913 9.15796C17.9845 9.29281 17.0725 9.37059 16.1033 9.37059C15.1339 9.37059 14.2219 9.29281 13.4152 9.15796C11.5117 8.83967 10.2067 8.31543 10.2067 7.57064V8.83749C9.49728 8.73904 8.71645 8.6845 7.89662 8.6845C4.64012 8.6845 2 9.54391 2 10.6042V13.8329C2 13.8931 2.01085 13.9526 2.02879 14.0114C2.31609 14.9466 4.83264 15.6782 7.89662 15.6782C8.71658 15.6782 9.49741 15.6257 10.2067 15.5311C10.3194 15.516 10.4302 15.4999 10.5392 15.4827C10.7104 15.4558 10.8769 15.4264 11.038 15.3945C12.5409 15.0977 13.5854 14.5941 13.7643 14.0114C13.7823 13.9526 13.7931 13.8931 13.7931 13.8329V14.2653C13.7931 14.8665 12.9424 15.324 11.613 15.6455C11.4182 15.6927 11.2131 15.7368 10.9988 15.7781C10.8642 15.8041 10.7261 15.8289 10.5846 15.8526C10.4611 15.8732 10.335 15.8923 10.2067 15.9102C9.49703 16.0092 8.71757 16.0651 7.89662 16.0651C6.92723 16.0651 6.01523 15.9874 5.20861 15.8526C3.30504 15.5342 2 15.0099 2 14.2651V17.4938C2 17.554 2.01085 17.6135 2.02879 17.6723C2.31609 18.6075 4.83277 19.3391 7.89662 19.3391C9.05763 19.3391 10.1398 19.234 11.0522 19.0526C12.5474 18.7554 13.586 18.2532 13.7644 17.6723C13.7823 17.6135 13.7931 17.554 13.7931 17.4938V17.926C13.7931 18.5249 12.9494 18.9811 11.6295 19.3024C11.3077 19.3807 10.9577 19.4511 10.5846 19.5135C9.77784 19.6483 8.86585 19.726 7.89662 19.726C6.92735 19.726 6.01536 19.6483 5.20861 19.5135C3.30504 19.1951 2.00013 18.6708 2.00013 17.926V21.1547C2.00013 21.2149 2.01098 21.2744 2.02892 21.3332C2.31609 22.2684 4.83277 23 7.89662 23C10.9606 23 13.4771 22.2684 13.7644 21.3332C13.7823 21.2744 13.7932 21.2149 13.7932 21.1547V19.799C14.5026 19.8938 15.2833 19.9462 16.1034 19.9462C19.1672 19.9462 21.6839 19.2147 21.9711 18.2795C21.989 18.2207 21.9999 18.161 21.9999 18.1009V14.8723C21.9999 15.6171 20.695 16.1414 18.7914 16.4598C17.9846 16.5946 17.0726 16.6723 16.1034 16.6723C15.2824 16.6723 14.5028 16.6163 13.7932 16.5174V16.1482C14.5026 16.2429 15.2833 16.2954 16.1034 16.2954C19.1672 16.2954 21.6839 15.5639 21.9711 14.6287C21.989 14.5698 21.9999 14.5103 21.9999 14.4501V11.2214C21.9999 11.9662 20.695 12.4906 18.7914 12.8089C17.9846 12.9437 17.0726 13.0214 16.1034 13.0214C15.2824 13.0214 14.5028 12.9654 13.7932 12.8665V12.4974C14.5026 12.5921 15.2834 12.6445 16.1034 12.6445C19.1672 12.6445 21.6839 11.913 21.9712 10.9778C21.9891 10.919 22 10.8594 22 10.7992V7.57064C21.9997 8.31543 20.6948 8.83967 18.7913 9.15796ZM12.741 10.8588C12.4924 11.0252 12.1235 11.1854 11.6741 11.3219C11.3815 11.4108 11.0621 11.4883 10.7219 11.5535C10.5978 11.5773 10.4709 11.5995 10.3416 11.6199C10.2969 11.627 10.2519 11.6339 10.2067 11.6406C9.4923 11.746 8.70697 11.8019 7.89649 11.8019C6.4786 11.8019 5.13701 11.6314 4.11891 11.3219C3.66952 11.1854 3.30054 11.0251 3.05191 10.8588C2.86025 10.7306 2.79554 10.6344 2.78482 10.6042C2.79554 10.574 2.86025 10.4779 3.05191 10.3497C3.30054 10.1833 3.66952 10.0231 4.11891 9.88657C5.13701 9.57711 6.4786 9.40667 7.89649 9.40667C8.70697 9.40667 9.4923 9.46248 10.2067 9.56793C10.7422 9.64694 11.2379 9.75401 11.6741 9.88657C12.1235 10.0231 12.4924 10.1833 12.741 10.3496C12.9328 10.4779 12.9974 10.574 13.0082 10.6042C12.9974 10.6344 12.9328 10.7306 12.741 10.8588Z" fill="#E6E4DC"/>
</svg>
