<svg width="1315" height="528" viewBox="0 0 1315 528" fill="none" xmlns="http://www.w3.org/2000/svg">
<path d="M0 0L1315 0V527.918L0 527.918L0 0Z" fill="url(#paint0_linear_16484_3987)" fill-opacity="0.8"/>
<g opacity="0.6">
<rect y="60.9219" width="146.111" height="0.882963" fill="#E5E4DC" fill-opacity="0.1"/>
<rect x="72.0815" width="132.444" height="0.974815" transform="rotate(90 72.0815 0)" fill="#E5E4DC" fill-opacity="0.1"/>
<rect width="6.58113" height="6.58113" transform="matrix(0.740908 0.671606 -0.740908 0.671606 71.5947 56.9453)" fill="#2A2A2A"/>
<rect x="146.111" y="60.9219" width="146.111" height="0.882963" fill="#E5E4DC" fill-opacity="0.1"/>
<rect x="218.193" width="132.444" height="0.974815" transform="rotate(90 218.193 0)" fill="#E5E4DC" fill-opacity="0.1"/>
<rect width="6.58113" height="6.58113" transform="matrix(0.740908 0.671606 -0.740908 0.671606 217.706 56.9453)" fill="#2A2A2A"/>
<rect x="292.222" y="60.9219" width="146.111" height="0.882963" fill="#E5E4DC" fill-opacity="0.1"/>
<rect x="364.303" width="132.444" height="0.974815" transform="rotate(90 364.303 0)" fill="#E5E4DC" fill-opacity="0.1"/>
<rect width="6.58113" height="6.58113" transform="matrix(0.740908 0.671606 -0.740908 0.671606 363.816 56.9453)" fill="#2A2A2A"/>
<rect x="438.333" y="60.9219" width="146.111" height="0.882963" fill="#E5E4DC" fill-opacity="0.1"/>
<rect x="510.415" width="132.444" height="0.974815" transform="rotate(90 510.415 0)" fill="#E5E4DC" fill-opacity="0.1"/>
<rect width="6.58113" height="6.58113" transform="matrix(0.740908 0.671606 -0.740908 0.671606 509.928 56.9453)" fill="#2A2A2A"/>
<rect x="584.444" y="60.9219" width="146.111" height="0.882963" fill="#E5E4DC" fill-opacity="0.1"/>
<rect x="656.526" width="132.444" height="0.974815" transform="rotate(90 656.526 0)" fill="#E5E4DC" fill-opacity="0.1"/>
<rect width="6.58113" height="6.58113" transform="matrix(0.740908 0.671606 -0.740908 0.671606 656.039 56.9453)" fill="#2A2A2A"/>
<rect x="730.556" y="60.9219" width="146.111" height="0.882963" fill="#E5E4DC" fill-opacity="0.1"/>
<rect x="802.637" width="132.444" height="0.974815" transform="rotate(90 802.637 0)" fill="#E5E4DC" fill-opacity="0.1"/>
<rect width="6.58113" height="6.58113" transform="matrix(0.740908 0.671606 -0.740908 0.671606 802.15 56.9453)" fill="#2A2A2A"/>
<rect x="876.667" y="60.9219" width="146.111" height="0.882963" fill="#E5E4DC" fill-opacity="0.1"/>
<rect x="948.748" width="132.444" height="0.974815" transform="rotate(90 948.748 0)" fill="#E5E4DC" fill-opacity="0.1"/>
<rect width="6.58113" height="6.58113" transform="matrix(0.740908 0.671606 -0.740908 0.671606 948.261 56.9453)" fill="#2A2A2A"/>
<rect x="1022.78" y="60.9219" width="146.111" height="0.882963" fill="#E5E4DC" fill-opacity="0.1"/>
<rect x="1094.86" width="132.444" height="0.974815" transform="rotate(90 1094.86 0)" fill="#E5E4DC" fill-opacity="0.1"/>
<rect width="6.58113" height="6.58113" transform="matrix(0.740908 0.671606 -0.740908 0.671606 1094.37 56.9453)" fill="#2A2A2A"/>
<rect x="1168.89" y="60.9219" width="146.111" height="0.882963" fill="#E5E4DC" fill-opacity="0.1"/>
<rect x="1240.97" width="132.444" height="0.974815" transform="rotate(90 1240.97 0)" fill="#E5E4DC" fill-opacity="0.1"/>
<rect width="6.58113" height="6.58113" transform="matrix(0.740908 0.671606 -0.740908 0.671606 1240.48 56.9453)" fill="#2A2A2A"/>
<rect y="191.922" width="146.111" height="0.882963" fill="#E5E4DC" fill-opacity="0.1"/>
<rect x="72.0815" y="131" width="132.444" height="0.974815" transform="rotate(90 72.0815 131)" fill="#E5E4DC" fill-opacity="0.1"/>
<rect width="6.58113" height="6.58113" transform="matrix(0.740908 0.671606 -0.740908 0.671606 71.5947 187.945)" fill="#2A2A2A"/>
<rect x="146.111" y="191.922" width="146.111" height="0.882963" fill="#E5E4DC" fill-opacity="0.1"/>
<rect x="218.193" y="131" width="132.444" height="0.974815" transform="rotate(90 218.193 131)" fill="#E5E4DC" fill-opacity="0.1"/>
<rect width="6.58113" height="6.58113" transform="matrix(0.740908 0.671606 -0.740908 0.671606 217.706 187.945)" fill="#2A2A2A"/>
<rect x="292.222" y="191.922" width="146.111" height="0.882963" fill="#E5E4DC" fill-opacity="0.1"/>
<rect x="364.303" y="131" width="132.444" height="0.974815" transform="rotate(90 364.303 131)" fill="#E5E4DC" fill-opacity="0.1"/>
<rect width="6.58113" height="6.58113" transform="matrix(0.740908 0.671606 -0.740908 0.671606 363.816 187.945)" fill="#2A2A2A"/>
<rect x="438.333" y="191.922" width="146.111" height="0.882963" fill="#E5E4DC" fill-opacity="0.1"/>
<rect x="510.415" y="131" width="132.444" height="0.974815" transform="rotate(90 510.415 131)" fill="#E5E4DC" fill-opacity="0.1"/>
<rect width="6.58113" height="6.58113" transform="matrix(0.740908 0.671606 -0.740908 0.671606 509.928 187.945)" fill="#2A2A2A"/>
<rect x="584.444" y="191.922" width="146.111" height="0.882963" fill="#E5E4DC" fill-opacity="0.1"/>
<rect x="656.526" y="131" width="132.444" height="0.974815" transform="rotate(90 656.526 131)" fill="#E5E4DC" fill-opacity="0.1"/>
<rect width="6.58113" height="6.58113" transform="matrix(0.740908 0.671606 -0.740908 0.671606 656.039 187.945)" fill="#2A2A2A"/>
<rect x="730.556" y="191.922" width="146.111" height="0.882963" fill="#E5E4DC" fill-opacity="0.1"/>
<rect x="802.637" y="131" width="132.444" height="0.974815" transform="rotate(90 802.637 131)" fill="#E5E4DC" fill-opacity="0.1"/>
<rect width="6.58113" height="6.58113" transform="matrix(0.740908 0.671606 -0.740908 0.671606 802.15 187.945)" fill="#2A2A2A"/>
<rect x="876.667" y="191.922" width="146.111" height="0.882963" fill="#E5E4DC" fill-opacity="0.1"/>
<rect x="948.748" y="131" width="132.444" height="0.974815" transform="rotate(90 948.748 131)" fill="#E5E4DC" fill-opacity="0.1"/>
<rect width="6.58113" height="6.58113" transform="matrix(0.740908 0.671606 -0.740908 0.671606 948.261 187.945)" fill="#2A2A2A"/>
<rect x="1022.78" y="191.922" width="146.111" height="0.882963" fill="#E5E4DC" fill-opacity="0.1"/>
<rect x="1094.86" y="131" width="132.444" height="0.974815" transform="rotate(90 1094.86 131)" fill="#E5E4DC" fill-opacity="0.1"/>
<rect width="6.58113" height="6.58113" transform="matrix(0.740908 0.671606 -0.740908 0.671606 1094.37 187.945)" fill="#2A2A2A"/>
<rect x="1168.89" y="191.922" width="146.111" height="0.882963" fill="#E5E4DC" fill-opacity="0.1"/>
<rect x="1240.97" y="131" width="132.444" height="0.974815" transform="rotate(90 1240.97 131)" fill="#E5E4DC" fill-opacity="0.1"/>
<rect width="6.58113" height="6.58113" transform="matrix(0.740908 0.671606 -0.740908 0.671606 1240.48 187.945)" fill="#2A2A2A"/>
<rect y="323.922" width="146.111" height="0.882963" fill="#E5E4DC" fill-opacity="0.1"/>
<rect x="72.0815" y="263" width="132.444" height="0.974815" transform="rotate(90 72.0815 263)" fill="#E5E4DC" fill-opacity="0.1"/>
<rect width="6.58113" height="6.58113" transform="matrix(0.740908 0.671606 -0.740908 0.671606 71.5947 319.945)" fill="#2A2A2A"/>
<rect x="146.111" y="323.922" width="146.111" height="0.882963" fill="#E5E4DC" fill-opacity="0.1"/>
<rect x="218.193" y="263" width="132.444" height="0.974815" transform="rotate(90 218.193 263)" fill="#E5E4DC" fill-opacity="0.1"/>
<rect width="6.58113" height="6.58113" transform="matrix(0.740908 0.671606 -0.740908 0.671606 217.706 319.945)" fill="#2A2A2A"/>
<rect x="292.222" y="323.922" width="146.111" height="0.882963" fill="#E5E4DC" fill-opacity="0.1"/>
<rect x="364.303" y="263" width="132.444" height="0.974815" transform="rotate(90 364.303 263)" fill="#E5E4DC" fill-opacity="0.1"/>
<rect width="6.58113" height="6.58113" transform="matrix(0.740908 0.671606 -0.740908 0.671606 363.816 319.945)" fill="#2A2A2A"/>
<rect x="438.333" y="323.922" width="146.111" height="0.882963" fill="#E5E4DC" fill-opacity="0.1"/>
<rect x="510.415" y="263" width="132.444" height="0.974815" transform="rotate(90 510.415 263)" fill="#E5E4DC" fill-opacity="0.1"/>
<rect width="6.58113" height="6.58113" transform="matrix(0.740908 0.671606 -0.740908 0.671606 509.928 319.945)" fill="#2A2A2A"/>
<rect x="584.444" y="323.922" width="146.111" height="0.882963" fill="#E5E4DC" fill-opacity="0.1"/>
<rect x="656.526" y="263" width="132.444" height="0.974815" transform="rotate(90 656.526 263)" fill="#E5E4DC" fill-opacity="0.1"/>
<rect width="6.58113" height="6.58113" transform="matrix(0.740908 0.671606 -0.740908 0.671606 656.039 319.945)" fill="#2A2A2A"/>
<rect x="730.556" y="323.922" width="146.111" height="0.882963" fill="#E5E4DC" fill-opacity="0.1"/>
<rect x="802.637" y="263" width="132.444" height="0.974815" transform="rotate(90 802.637 263)" fill="#E5E4DC" fill-opacity="0.1"/>
<rect width="6.58113" height="6.58113" transform="matrix(0.740908 0.671606 -0.740908 0.671606 802.15 319.945)" fill="#2A2A2A"/>
<rect x="876.667" y="323.922" width="146.111" height="0.882963" fill="#E5E4DC" fill-opacity="0.1"/>
<rect x="948.748" y="263" width="132.444" height="0.974815" transform="rotate(90 948.748 263)" fill="#E5E4DC" fill-opacity="0.1"/>
<rect width="6.58113" height="6.58113" transform="matrix(0.740908 0.671606 -0.740908 0.671606 948.261 319.945)" fill="#2A2A2A"/>
<rect x="1022.78" y="323.922" width="146.111" height="0.882963" fill="#E5E4DC" fill-opacity="0.1"/>
<rect x="1094.86" y="263" width="132.444" height="0.974815" transform="rotate(90 1094.86 263)" fill="#E5E4DC" fill-opacity="0.1"/>
<rect width="6.58113" height="6.58113" transform="matrix(0.740908 0.671606 -0.740908 0.671606 1094.37 319.945)" fill="#2A2A2A"/>
<rect x="1168.89" y="323.922" width="146.111" height="0.882963" fill="#E5E4DC" fill-opacity="0.1"/>
<rect x="1240.97" y="263" width="132.444" height="0.974815" transform="rotate(90 1240.97 263)" fill="#E5E4DC" fill-opacity="0.1"/>
<rect width="6.58113" height="6.58113" transform="matrix(0.740908 0.671606 -0.740908 0.671606 1240.48 319.945)" fill="#2A2A2A"/>
</g>
<g opacity="0.6">
<path d="M396.24 85.26C396.24 85.1164 396.356 85 396.5 85V85C396.644 85 396.76 85.1164 396.76 85.26V87.7733C396.76 89.6879 398.312 91.24 400.227 91.24H402.74C402.884 91.24 403 91.3564 403 91.5V91.5C403 91.6436 402.884 91.76 402.74 91.76H400.227C398.312 91.76 396.76 93.3121 396.76 95.2267V97.74C396.76 97.8836 396.644 98 396.5 98V98C396.356 98 396.24 97.8836 396.24 97.74V95.2267C396.24 93.3121 394.688 91.76 392.773 91.76H390.26C390.116 91.76 390 91.6436 390 91.5V91.5C390 91.3564 390.116 91.24 390.26 91.24H392.773C394.688 91.24 396.24 89.6879 396.24 87.7733V85.26Z" fill="#B5B4B2"/>
<path d="M484.68 215.32C484.68 215.143 484.823 215 485 215V215C485.177 215 485.32 215.143 485.32 215.32V218.413C485.32 220.77 487.23 222.68 489.587 222.68H492.68C492.857 222.68 493 222.823 493 223V223C493 223.177 492.857 223.32 492.68 223.32H489.587C487.23 223.32 485.32 225.23 485.32 227.587V230.68C485.32 230.857 485.177 231 485 231V231C484.823 231 484.68 230.857 484.68 230.68V227.587C484.68 225.23 482.77 223.32 480.413 223.32H477.32C477.143 223.32 477 223.177 477 223V223C477 222.823 477.143 222.68 477.32 222.68H480.413C482.77 222.68 484.68 220.77 484.68 218.413V215.32Z" fill="#B5B4B2"/>
<path d="M677.8 125.2C677.8 125.09 677.89 125 678 125V125C678.11 125 678.2 125.09 678.2 125.2V127.133C678.2 128.606 679.394 129.8 680.867 129.8H682.8C682.91 129.8 683 129.89 683 130V130C683 130.11 682.91 130.2 682.8 130.2H680.867C679.394 130.2 678.2 131.394 678.2 132.867V134.8C678.2 134.91 678.11 135 678 135V135C677.89 135 677.8 134.91 677.8 134.8V132.867C677.8 131.394 676.606 130.2 675.133 130.2H673.2C673.09 130.2 673 130.11 673 130V130C673 129.89 673.09 129.8 673.2 129.8H675.133C676.606 129.8 677.8 128.606 677.8 127.133V125.2Z" fill="#B5B4B2"/>
<path d="M918.84 159.16C918.84 159.072 918.912 159 919 159V159C919.088 159 919.16 159.072 919.16 159.16V160.707C919.16 161.885 920.115 162.84 921.293 162.84H922.84C922.928 162.84 923 162.912 923 163V163C923 163.088 922.928 163.16 922.84 163.16H921.293C920.115 163.16 919.16 164.115 919.16 165.293V166.84C919.16 166.928 919.088 167 919 167V167C918.912 167 918.84 166.928 918.84 166.84V165.293C918.84 164.115 917.885 163.16 916.707 163.16H915.16C915.072 163.16 915 163.088 915 163V163C915 162.912 915.072 162.84 915.16 162.84H916.707C917.885 162.84 918.84 161.885 918.84 160.707V159.16Z" fill="#B5B4B2"/>
<path d="M787.28 167.22C787.28 167.098 787.378 167 787.5 167V167C787.622 167 787.72 167.098 787.72 167.22V169.133C787.72 170.606 789.033 171.8 790.653 171.8H792.8C792.91 171.8 793 171.89 793 172V172C793 172.11 792.91 172.2 792.8 172.2H790.653C789.033 172.2 787.72 173.394 787.72 174.867V176.78C787.72 176.902 787.622 177 787.5 177V177C787.378 177 787.28 176.902 787.28 176.78V174.867C787.28 173.394 785.967 172.2 784.347 172.2H782.2C782.09 172.2 782 172.11 782 172V172C782 171.89 782.09 171.8 782.2 171.8H784.347C785.967 171.8 787.28 170.606 787.28 169.133V167.22Z" fill="#B5B4B2"/>
</g>
<defs>
<linearGradient id="paint0_linear_16484_3987" x1="557.39" y1="524.213" x2="557.39" y2="-2.67376e-07" gradientUnits="userSpaceOnUse">
<stop stop-color="#B05C26" stop-opacity="0.64"/>
<stop offset="0.510417" stop-color="#2B4D6B" stop-opacity="0.54"/>
<stop offset="1" stop-color="#040404" stop-opacity="0"/>
</linearGradient>
</defs>
</svg>
