<svg width="18" height="18" viewBox="0 0 18 18" fill="none" xmlns="http://www.w3.org/2000/svg">
<path d="M16.5508 17.864C16.7321 18.0453 17.0261 18.0453 17.2074 17.864L17.864 17.2074C18.0453 17.0261 18.0453 16.7321 17.864 16.5508L10.3132 9L17.864 1.44917C18.0453 1.26786 18.0453 0.973892 17.864 0.792579L17.2074 0.135985C17.0261 -0.0453282 16.7321 -0.0453282 16.5508 0.135985L9 7.68681L1.44917 0.135985C1.26786 -0.0453284 0.973892 -0.0453282 0.792579 0.135985L0.135985 0.792579C-0.0453282 0.973892 -0.0453282 1.26786 0.135985 1.44917L7.68681 9L0.135985 16.5508C-0.0453284 16.7321 -0.0453282 17.0261 0.135985 17.2074L0.792579 17.864C0.973892 18.0453 1.26786 18.0453 1.44917 17.864L9 10.3132L16.5508 17.864Z" fill="#E6E4DC"/>
</svg>
