<svg width="19" height="16" viewBox="0 0 19 16" fill="none" xmlns="http://www.w3.org/2000/svg">
<path d="M16.0919 2.66479V0.031067C16.0919 0.0138078 16.0786 0 16.0619 0H10.9204C10.9038 0 10.8905 0.0138078 10.8905 0.031067V2.66479H8.43333V0.031067C8.43333 0.0138078 8.42002 0 8.40338 0H3.2652C3.24856 0 3.23525 0.0138078 3.23525 0.031067V2.66479H0.694017C0.677376 2.66479 0.664062 2.6786 0.664062 2.69586V8.02801C0.664062 8.04527 0.677376 8.05908 0.694017 8.05908H3.23525V10.6928C3.23525 10.7101 3.24856 10.7239 3.2652 10.7239H5.80477V13.3593C5.80477 13.3766 5.81808 13.3904 5.83472 13.3904H8.34434V15.9689C8.34434 15.9862 8.35766 16 8.3743 16H10.9438C10.9604 16 10.9738 15.9853 10.9738 15.9689V13.3904H13.4917C13.5084 13.3904 13.5217 13.3757 13.5217 13.3593V10.7239H16.0629C16.0796 10.7239 16.0929 10.7092 16.0929 10.6928V8.05908H18.6341C18.6507 8.05908 18.6641 8.04527 18.6641 8.02801V2.69586C18.6641 2.6786 18.6507 2.66479 18.6341 2.66479H16.0919Z" fill="#B05733"/>
</svg>
