<svg width="16" height="14" viewBox="0 0 16 14" fill="none" xmlns="http://www.w3.org/2000/svg">
<path fill-rule="evenodd" clip-rule="evenodd" d="M0 0.5C0 0.223858 0.223858 0 0.5 0H15.5C15.7761 0 16 0.223858 16 0.5V1.5C16 1.77614 15.7761 2 15.5 2H0.5C0.223858 2 0 1.77614 0 1.5V0.5ZM0 12.5C0 12.2239 0.223858 12 0.5 12H15.5C15.7761 12 16 12.2239 16 12.5V13.5C16 13.7761 15.7761 14 15.5 14H0.5C0.223858 14 0 13.7761 0 13.5V12.5ZM0.5 6C0.223858 6 0 6.22386 0 6.5V7.5C0 7.77614 0.223858 8 0.5 8H15.5C15.7761 8 16 7.77614 16 7.5V6.5C16 6.22386 15.7761 6 15.5 6H0.5Z" fill="#E6E4DC"/>
</svg>
