<svg width="149" height="40" viewBox="0 0 149 40" fill="none" xmlns="http://www.w3.org/2000/svg">
<g clip-path="url(#clip0_2289_74971)">
<path d="M59.0053 7.4502H53.367C49.7035 7.45093 46.1903 8.83667 43.6 11.3027C41.0098 13.7686 39.5547 17.1129 39.5547 20.6V25.3475C39.5547 28.8343 41.0099 32.1783 43.6002 34.6438C46.1905 37.1094 49.7037 38.4945 53.367 38.4945H59.0053C62.6688 38.4945 66.1823 37.1095 68.7731 34.644C71.3638 32.1785 72.8197 28.8345 72.8204 25.3475V20.6055C72.8212 18.8782 72.4644 17.1676 71.7705 15.5716C71.0766 13.9756 70.0591 12.5253 68.7761 11.3036C67.4932 10.082 65.97 9.11287 64.2934 8.45169C62.6169 7.79051 60.82 7.4502 59.0053 7.4502ZM65.1929 24.742C65.1948 25.6872 65.0008 26.6234 64.6222 27.4972C64.2435 28.3709 63.6875 29.165 62.986 29.834C62.2845 30.503 61.4513 31.0338 60.534 31.3959C59.6168 31.758 58.6335 31.9444 57.6405 31.9444H54.7346C53.743 31.9448 52.761 31.7591 51.8447 31.3982C50.9284 31.0372 50.0958 30.508 49.3945 29.8407C48.6931 29.1734 48.1368 28.3811 47.7572 27.5091C47.3776 26.6371 47.1822 25.7024 47.1822 24.7585V21.211C47.1822 19.3044 47.9779 17.476 49.3943 16.1278C50.8106 14.7797 52.7316 14.0223 54.7346 14.0223H57.6405C59.6433 14.0231 61.5638 14.7807 62.98 16.1287C64.3962 17.4766 65.1921 19.3047 65.1929 21.211V24.742Z" fill="#E6E4DC"/>
<path d="M4 37.6686V7.76367H26.634C27.4699 7.86029 28.2891 8.05917 29.0715 8.35538C29.9815 8.70408 30.8461 9.15201 31.6477 9.69018C32.0774 9.98294 32.4842 10.3049 32.865 10.6534C33.3337 11.0931 33.7722 11.561 34.1777 12.0543C35.0548 13.0782 35.6615 14.287 35.9473 15.5798C36.2149 16.8844 36.3467 18.2109 36.3405 19.5401C35.8181 21.8776 35.1126 23.4977 34.224 24.4005C33.7643 24.8683 33.2872 25.3197 32.7985 25.7573C32.2695 26.226 31.6998 26.6514 31.0955 27.0288C30.5607 27.3571 29.9896 27.6285 29.3924 27.8379C29.0021 27.972 28.6033 28.0823 28.1983 28.1682C27.5725 28.2431 26.9558 28.3749 26.3564 28.5617H15.823V22.3859H21.7099C22.5135 22.3875 23.3061 22.2084 24.0231 21.863C24.1971 21.7928 24.3661 21.7119 24.5291 21.6208C24.7141 21.5189 24.9281 21.3951 25.1739 21.2492C25.3964 21.1004 25.6036 20.9318 25.7926 20.7456C26.0242 20.526 26.2396 20.2915 26.4374 20.0438C26.6272 19.8097 26.7964 19.5612 26.9434 19.3007C27.0652 19.1077 27.1366 18.8897 27.1516 18.665C27.1516 18.431 27.1516 18.2219 27.1285 18.032C27.1053 17.8421 27.088 17.6577 27.0591 17.4815C27.0174 17.2764 26.9474 17.0775 26.8509 16.8898C26.7439 16.6696 26.6225 16.444 26.4837 16.21C26.3454 15.9773 26.1837 15.758 26.0008 15.555C25.8493 15.3754 25.6615 15.2266 25.4485 15.1174C24.8777 14.8298 24.2864 14.5805 23.679 14.3716C23.1416 14.1789 22.5733 14.0756 21.9991 14.0661H13.3393C13.1872 14.0796 13.0468 14.1499 12.9489 14.2615C12.8033 14.4021 12.6725 14.5561 12.5586 14.7211C12.4343 14.8973 12.3273 15.0651 12.2348 15.2248C12.176 15.3103 12.1293 15.4028 12.096 15.5V37.3494C12.0861 37.4624 12.0385 37.5694 11.9601 37.6548C11.8675 37.7704 11.7606 37.8943 11.6362 38.0264C11.5228 38.1523 11.3914 38.2625 11.2459 38.3539C11.1466 38.428 11.0273 38.4738 10.9018 38.486H4.69105L4 37.6686Z" fill="#E6E4DC"/>
<path d="M78.6586 38.4998L77.875 37.4485V20.0659C77.8944 18.5549 78.0883 17.0505 78.4533 15.5798C78.795 14.0438 79.4588 12.5891 80.405 11.303C81.3368 10.1375 82.5524 9.20527 83.947 8.58661C85.413 7.98579 86.9977 7.69201 88.5935 7.72518H99.497L100.185 8.38295V13.1552C100.185 13.302 99.9558 13.7396 99.497 14.468H91.1697C90.5368 14.5229 89.9165 14.6705 89.3308 14.9056C88.7536 15.136 88.224 15.4621 87.7665 15.8688C87.3036 16.283 86.9217 16.7722 86.6389 17.3137C86.3395 17.9015 86.1749 18.5432 86.156 19.1962V37.4485L85.0978 38.4998H78.6586Z" fill="#E6E4DC"/>
<path d="M113.711 27.161C113.741 27.7772 113.906 28.3806 114.194 28.9334C114.476 29.4938 114.856 30.0047 115.318 30.4443C115.773 30.8766 116.302 31.2322 116.883 31.4956C117.458 31.7557 118.087 31.8902 118.724 31.8892H127.049C127.51 32.502 127.74 32.8955 127.74 33.0698V37.8448L127.049 38.4999H116.148C114.553 38.5322 112.971 38.2178 111.522 37.5806C110.15 36.9391 108.935 36.0295 107.957 34.911C106.987 33.6447 106.313 32.196 105.979 30.6617C105.628 29.1856 105.444 27.678 105.43 26.1647V8.63895L106.488 7.71973H112.56L113.716 8.63895V17.6578H125.629L126.32 18.3155V23.1373C126.32 23.2254 126.09 23.5923 125.629 24.2382H113.716L113.711 27.161Z" fill="#E6E4DC"/>
<path d="M142.899 7.02669C142.947 7.03534 142.995 7.03995 143.043 7.04045H144.006C144.134 7.04081 144.26 7.01714 144.379 6.9708C144.497 6.92446 144.604 6.85635 144.694 6.77041C144.784 6.68447 144.856 6.58239 144.905 6.47003C144.953 6.35767 144.978 6.23726 144.978 6.11572V5.19926C144.978 5.07782 144.953 4.95757 144.904 4.84538C144.855 4.73318 144.783 4.63125 144.693 4.54538C144.603 4.45951 144.496 4.39139 144.378 4.34492C144.26 4.29845 144.134 4.27453 144.006 4.27453H143.043C142.992 4.27579 142.941 4.28132 142.89 4.29104L142.873 4.27453H142.835C142.633 4.2738 142.438 4.19664 142.295 4.05994C142.152 3.92325 142.072 3.73816 142.072 3.54521V3.50943L142.057 3.49292C142.065 3.44462 142.07 3.39591 142.072 3.34705V2.43059C142.072 2.18534 141.97 1.95013 141.787 1.77671C141.605 1.60329 141.358 1.50586 141.1 1.50586H137.336C137.079 1.50659 136.832 1.60434 136.651 1.77768C136.469 1.95102 136.367 2.18581 136.367 2.43059V3.34705C136.367 3.46836 136.392 3.58855 136.44 3.70072C136.489 3.8129 136.56 3.91486 136.65 4.00077C136.74 4.08667 136.847 4.15483 136.964 4.20133C137.082 4.24784 137.208 4.27178 137.336 4.27178H141.132C141.18 4.27142 141.227 4.26681 141.274 4.25802V4.27178H141.326C141.529 4.27251 141.723 4.34967 141.866 4.48637C142.009 4.62306 142.089 4.80815 142.089 5.0011C142.089 5.01486 142.089 5.03137 142.089 5.04788L142.107 5.0644C142.104 5.10839 142.104 5.15251 142.107 5.1965V6.11298C142.104 6.16064 142.104 6.20842 142.107 6.25608V6.26984V6.30562C142.106 6.49045 142.032 6.6682 141.899 6.80267C141.765 6.93714 141.583 7.01824 141.39 7.02944C141.319 7.01275 141.246 7.00443 141.173 7.00467H139.114C138.986 7.00431 138.86 7.02798 138.742 7.07432C138.624 7.12067 138.517 7.18876 138.426 7.27471C138.336 7.36065 138.264 7.46274 138.216 7.57509C138.167 7.68745 138.142 7.80785 138.143 7.92939V8.84587C138.143 9.09112 138.245 9.32633 138.427 9.49975C138.609 9.67317 138.856 9.77059 139.114 9.77059H141.173C141.213 9.77059 141.248 9.77059 141.285 9.77059H141.34C141.543 9.77059 141.737 9.84714 141.88 9.9834C142.023 10.1197 142.104 10.3045 142.104 10.4972C142.104 10.5137 142.104 10.5302 142.104 10.5467L142.121 10.5605C142.118 10.6054 142.118 10.6504 142.121 10.6953V11.6118C142.118 11.6613 142.118 11.7109 142.121 11.7604V11.7962C142.121 11.9889 142.041 12.1737 141.898 12.3099C141.754 12.4462 141.56 12.5227 141.358 12.5227H141.335C141.291 12.5156 141.246 12.511 141.202 12.509H137.391C137.263 12.509 137.137 12.5329 137.019 12.5794C136.901 12.6258 136.794 12.694 136.704 12.7798C136.614 12.8657 136.542 12.9676 136.493 13.0798C136.444 13.192 136.419 13.3123 136.419 13.4337V14.3309C136.419 14.4525 136.444 14.5729 136.492 14.6852C136.541 14.7976 136.613 14.8997 136.703 14.9856C136.793 15.0715 136.9 15.1396 137.019 15.186C137.137 15.2323 137.263 15.256 137.391 15.2556H141.187C141.315 15.2556 141.441 15.2317 141.559 15.1852C141.676 15.1387 141.783 15.0705 141.873 14.9846C141.963 14.8987 142.034 14.7968 142.083 14.6846C142.131 14.5724 142.156 14.4522 142.156 14.3309V13.4144C142.156 13.359 142.15 13.3037 142.138 13.2493V13.23C142.139 13.0371 142.22 12.8523 142.364 12.7161C142.508 12.5799 142.702 12.5035 142.905 12.5035H142.919C142.965 12.5108 143.011 12.5154 143.058 12.5172H144.021C144.278 12.5172 144.526 12.4198 144.708 12.2464C144.89 12.073 144.992 11.8378 144.992 11.5925V10.676C144.993 10.5545 144.968 10.4341 144.919 10.3217C144.87 10.2094 144.799 10.1073 144.709 10.0214C144.618 9.93542 144.511 9.86731 144.393 9.82097C144.275 9.77463 144.148 9.75096 144.021 9.75132H143.058C143.007 9.75167 142.955 9.75628 142.905 9.76509L142.887 9.74857H142.85C142.656 9.7483 142.471 9.67828 142.329 9.55263C142.188 9.42697 142.102 9.25506 142.089 9.07154C142.113 8.99473 142.126 8.91504 142.127 8.83485V7.91839C142.125 7.87137 142.12 7.82449 142.112 7.77803L142.13 7.76152C142.129 7.66504 142.148 7.56939 142.187 7.48008C142.225 7.39078 142.282 7.30961 142.353 7.24126C142.425 7.17292 142.51 7.11877 142.603 7.08193C142.697 7.0451 142.798 7.02632 142.899 7.02669Z" fill="#E6E4DC"/>
</g>
<defs>
<clipPath id="clip0_2289_74971">
<rect width="141" height="37" fill="white" transform="translate(4 1.5)"/>
</clipPath>
</defs>
</svg>
