<svg width="86" height="86" viewBox="0 0 86 86" fill="none" xmlns="http://www.w3.org/2000/svg">
<g clip-path="url(#clip0_2289_74776)">
<path d="M43 86C66.7482 86 86 66.7482 86 43C86 19.2518 66.7482 0 43 0C19.2518 0 0 19.2518 0 43C0 66.7482 19.2518 86 43 86Z" fill="#E6E4DC"/>
<path d="M65.8878 57.4276H65.8983L65.905 57.4211C65.9403 57.4269 65.976 57.4303 66.0118 57.4314H66.7363C66.8321 57.4315 66.9271 57.413 67.0157 57.377C67.1043 57.3409 67.1848 57.288 67.2526 57.2213C67.3204 57.1546 67.3742 57.0753 67.4109 56.9881C67.4476 56.9008 67.4665 56.8073 67.4665 56.7129V56.0001C67.4665 55.8092 67.3896 55.6263 67.2526 55.4913C67.1157 55.3564 66.93 55.2806 66.7363 55.2806H66.0118C65.9734 55.2815 65.9352 55.2853 65.8974 55.2919L65.885 55.2797H65.8554C65.7037 55.2797 65.5582 55.2203 65.451 55.1146C65.3437 55.0089 65.2834 54.8656 65.2834 54.7162C65.2834 54.7068 65.2834 54.6974 65.2834 54.688L65.271 54.6758C65.2785 54.6383 65.2827 54.6003 65.2834 54.5621V53.8483C65.2834 53.6575 65.2065 53.4745 65.0696 53.3396C64.9326 53.2047 64.7469 53.1289 64.5532 53.1289H61.699C61.5053 53.1289 61.3196 53.2047 61.1826 53.3396C61.0457 53.4745 60.9688 53.6575 60.9688 53.8483V54.5621C60.9687 54.7529 61.0457 54.9359 61.1826 55.0708C61.3196 55.2058 61.5053 55.2816 61.699 55.2816H64.5522C64.5874 55.2805 64.6225 55.2771 64.6571 55.2712L64.6676 55.2816H64.7057C64.8574 55.2816 65.0029 55.3409 65.1102 55.4466C65.2175 55.5523 65.2777 55.6956 65.2777 55.8451C65.2777 55.8582 65.2777 55.8704 65.2777 55.8827L65.2901 55.8949C65.2837 55.9293 65.2802 55.9641 65.2796 55.9991V56.7129C65.2801 56.7501 65.2839 56.7872 65.2911 56.8237L65.2806 56.8331C65.2811 56.8428 65.2811 56.8525 65.2806 56.8622C65.2808 57.0063 65.225 57.145 65.1247 57.2498C65.0243 57.3546 64.887 57.4176 64.741 57.4258C64.6875 57.4138 64.6329 57.4075 64.578 57.407H63.0336C62.8402 57.407 62.6547 57.4827 62.5179 57.6174C62.3812 57.7522 62.3043 57.9349 62.3043 58.1255V58.8393C62.3043 59.0299 62.3811 59.2128 62.5179 59.3476C62.6546 59.4825 62.8401 59.5584 63.0336 59.5587H64.5828C64.6112 59.5577 64.6395 59.5549 64.6676 59.5502H64.7057C64.8574 59.5502 65.0029 59.6096 65.1102 59.7153C65.2175 59.821 65.2777 59.9643 65.2777 60.1138C65.2777 60.126 65.2777 60.1382 65.2777 60.1504L65.2901 60.1635C65.2837 60.1976 65.2802 60.2322 65.2796 60.2669V60.9806C65.2801 61.0194 65.2839 61.0581 65.2911 61.0962C65.2911 61.1065 65.2911 61.1159 65.2911 61.1253C65.2911 61.2747 65.2308 61.4181 65.1235 61.5238C65.0163 61.6294 64.8708 61.6888 64.7191 61.6888H64.701C64.6694 61.6839 64.6376 61.6808 64.6056 61.6794H61.7476C61.6518 61.6794 61.5568 61.698 61.4683 61.7342C61.3798 61.7704 61.2993 61.8234 61.2316 61.8902C61.1639 61.957 61.1102 62.0363 61.0736 62.1236C61.037 62.2109 61.0182 62.3044 61.0183 62.3988V63.1126C61.0182 63.207 61.037 63.3005 61.0736 63.3877C61.1102 63.475 61.1639 63.5542 61.2316 63.621C61.2994 63.6877 61.3798 63.7406 61.4684 63.7767C61.5569 63.8128 61.6518 63.8313 61.7476 63.8311H64.6009C64.6967 63.8313 64.7917 63.8128 64.8802 63.7767C64.9688 63.7407 65.0493 63.6878 65.1172 63.621C65.185 63.5543 65.2388 63.475 65.2755 63.3878C65.3122 63.3006 65.3311 63.2071 65.3311 63.1126V62.3988C65.3306 62.3556 65.3261 62.3126 65.3178 62.2702V62.2655C65.3178 62.2655 65.3178 62.2589 65.3178 62.2551C65.3178 62.1057 65.378 61.9624 65.4853 61.8567C65.5926 61.751 65.738 61.6916 65.8898 61.6916H65.9002C65.9343 61.6974 65.9687 61.7009 66.0032 61.702H66.7277C66.9214 61.702 67.1071 61.6262 67.2441 61.4912C67.381 61.3563 67.4579 61.1733 67.4579 60.9825V60.2687C67.4579 60.1743 67.4391 60.0807 67.4024 59.9934C67.3657 59.9061 67.3119 59.8268 67.2441 59.76C67.1763 59.6932 67.0958 59.6402 67.0072 59.6041C66.9186 59.5679 66.8236 59.5493 66.7277 59.5493H66.0032C65.9648 59.5502 65.9266 59.5539 65.8888 59.5606L65.8764 59.5484H65.8469C65.7012 59.5486 65.561 59.4942 65.4547 59.3961C65.3484 59.298 65.2841 59.1637 65.2749 59.0205C65.2924 58.9594 65.3014 58.8962 65.3016 58.8327V58.1189C65.3009 58.0827 65.2974 58.0466 65.2911 58.0109L65.3035 57.9987C65.3035 57.9987 65.3035 57.9921 65.3035 57.9883C65.3038 57.9135 65.3193 57.8396 65.349 57.7707C65.3787 57.7019 65.422 57.6395 65.4764 57.5873C65.5308 57.5351 65.5952 57.4941 65.6658 57.4667C65.7365 57.4393 65.8119 57.426 65.8878 57.4276Z" fill="#292422"/>
<path d="M49.688 22.9297H32.0637C31.4072 22.9297 30.875 23.4619 30.875 24.1184V31.8718C30.875 32.5283 31.4072 33.0605 32.0637 33.0605H49.688C50.3445 33.0605 50.8767 32.5283 50.8767 31.8718V24.1184C50.8767 23.4619 50.3445 22.9297 49.688 22.9297Z" fill="#292422"/>
<path d="M29.8171 33.0603H22.0637C21.4072 33.0603 20.875 33.5925 20.875 34.249V61.8837C20.875 62.5402 21.4072 63.0724 22.0637 63.0724H29.8171C30.4736 63.0724 31.0058 62.5402 31.0058 61.8837V34.249C31.0058 33.5925 30.4736 33.0603 29.8171 33.0603Z" fill="#292422"/>
<path d="M59.8171 33.0605H52.0637C51.4072 33.0605 50.875 33.5928 50.875 34.2493V42.0026C50.875 42.6591 51.4072 43.1913 52.0637 43.1913H59.8171C60.4736 43.1913 61.0058 42.6591 61.0058 42.0026V34.2493C61.0058 33.5928 60.4736 33.0605 59.8171 33.0605Z" fill="#292422"/>
<path d="M49.8327 43.0635H38.259C37.6025 43.0635 37.0703 43.5957 37.0703 44.2522V52.0056C37.0703 52.6621 37.6025 53.1943 38.259 53.1943H49.8327C50.4892 53.1943 51.0214 52.6621 51.0214 52.0056V44.2522C51.0214 43.5957 50.4892 43.0635 49.8327 43.0635Z" fill="#292422"/>
<path d="M53.6684 33.0622C53.6245 33.0622 53.5805 33.0622 53.5346 33.0622C52.8284 33.0622 52.1511 32.7818 51.6515 32.2826C51.152 31.7834 50.8711 31.1062 50.8705 30.4C50.8705 30.3542 50.8705 30.3102 50.8705 30.2643L50.7998 30.1955C50.6711 30.0664 50.5182 29.9639 50.3498 29.894C50.1814 29.8241 50.0008 29.7881 49.8185 29.7881C49.6361 29.7881 49.4556 29.8241 49.2872 29.894C49.1188 29.9639 48.9658 30.0664 48.8371 30.1955L47.9771 31.0555C47.7166 31.3161 47.5703 31.6694 47.5703 32.0378C47.5703 32.4063 47.7166 32.7596 47.9771 33.0201L48.0268 33.0679C48.0841 33.0679 48.1434 33.0679 48.2026 33.0679C48.9089 33.0679 49.5862 33.3483 50.0858 33.8475C50.5853 34.3467 50.8662 35.0239 50.8667 35.7301C50.8667 35.7913 50.8667 35.8486 50.8667 35.9078L51.1515 36.1907C51.2802 36.3198 51.4331 36.4223 51.6016 36.4922C51.77 36.5621 51.9505 36.5981 52.1328 36.5981C52.3152 36.5981 52.4957 36.5621 52.6641 36.4922C52.8325 36.4223 52.9855 36.3198 53.1142 36.1907L53.9742 35.3307C54.1033 35.202 54.2058 35.049 54.2757 34.8806C54.3456 34.7122 54.3816 34.5317 54.3816 34.3493C54.3816 34.167 54.3456 33.9864 54.2757 33.818C54.2058 33.6496 54.1033 33.4967 53.9742 33.368L53.6684 33.0622Z" fill="#292422"/>
<path d="M31.008 35.7227C31.009 35.0171 31.2899 34.3408 31.789 33.8421C32.2881 33.3433 32.9646 33.0629 33.6702 33.0624H33.7199L33.997 32.7853C34.2575 32.5248 34.4038 32.1714 34.4038 31.803C34.4038 31.4346 34.2575 31.0813 33.997 30.8207L33.137 29.9607C32.8762 29.7007 32.523 29.5547 32.1547 29.5547C31.7864 29.5547 31.4332 29.7007 31.1724 29.9607L30.8685 30.2646C30.8685 30.3104 30.8685 30.3544 30.8685 30.4003C30.868 31.1052 30.5882 31.7811 30.0903 32.2801C29.5924 32.7791 28.917 33.0604 28.2121 33.0624C28.1662 33.0624 28.1223 33.0624 28.0783 33.0624L28.0076 33.1312C27.7476 33.392 27.6016 33.7453 27.6016 34.1136C27.6016 34.4818 27.7476 34.8351 28.0076 35.0959L28.8676 35.9559C29.1281 36.2163 29.4815 36.3627 29.8499 36.3627C30.2183 36.3627 30.5717 36.2163 30.8322 35.9559L31.0099 35.7781C31.0099 35.7533 31.008 35.738 31.008 35.7227Z" fill="#292422"/>
<path d="M51.0302 45.8319C51.0302 45.1253 51.3109 44.4477 51.8105 43.9481C52.3101 43.4484 52.9877 43.1678 53.6943 43.1678H53.742L54.0192 42.8907C54.1483 42.7619 54.2508 42.609 54.3207 42.4406C54.3906 42.2722 54.4266 42.0916 54.4266 41.9093C54.4266 41.727 54.3906 41.5464 54.3207 41.378C54.2508 41.2096 54.1483 41.0567 54.0192 40.9279L53.1592 40.0679C52.8986 39.8075 52.5453 39.6611 52.1768 39.6611C51.8084 39.6611 51.4551 39.8075 51.1945 40.0679L50.8907 40.3718C50.8907 40.4158 50.8907 40.4597 50.8907 40.5056C50.8907 41.2122 50.61 41.8898 50.1104 42.3894C49.6108 42.889 48.9331 43.1697 48.2266 43.1697C48.1807 43.1697 48.1368 43.1697 48.0928 43.1697L48.024 43.2385C47.7635 43.499 47.6172 43.8524 47.6172 44.2208C47.6172 44.5892 47.7635 44.9426 48.024 45.2031L48.8821 46.0631C49.1426 46.3236 49.496 46.4699 49.8644 46.4699C50.2328 46.4699 50.5862 46.3236 50.8467 46.0631L51.0244 45.8854C51.0302 45.8663 51.0302 45.8471 51.0302 45.8319Z" fill="#292422"/>
</g>
<defs>
<clipPath id="clip0_2289_74776">
<rect width="86" height="86" fill="white"/>
</clipPath>
</defs>
</svg>
