<svg width="120" height="24" viewBox="0 0 120 24" fill="none" xmlns="http://www.w3.org/2000/svg">
<g clip-path="url(#clip0_2289_74985)">
<path fill-rule="evenodd" clip-rule="evenodd" d="M25.2091 3.2002H21.9666C20.1449 3.20051 18.398 3.92438 17.11 5.2126C15.822 6.50083 15.0984 8.2479 15.0984 10.0696V13.3109C15.0984 15.1324 15.822 16.8794 17.11 18.1674C18.3981 19.4555 20.145 20.1791 21.9666 20.1791H25.2091C27.0306 20.1791 28.7776 19.4555 30.0656 18.1674C31.3537 16.8794 32.0773 15.1324 32.0773 13.3109V10.0696C32.0773 8.2479 31.3537 6.50083 30.0657 5.2126C28.7777 3.92438 27.0308 3.20051 25.2091 3.2002ZM24.1161 13.9511C24.1161 14.0919 24.0602 14.2268 23.9607 14.3263C23.8612 14.4258 23.7262 14.4817 23.5855 14.4817C23.4448 14.4817 23.3098 14.4258 23.2103 14.3263C23.1108 14.2268 23.0549 14.0919 23.0549 13.9511V9.43404C23.0549 9.29332 23.1108 9.15836 23.2103 9.05886C23.3098 8.95935 23.4448 8.90345 23.5855 8.90345C23.7262 8.90345 23.8612 8.95935 23.9607 9.05886C24.0602 9.15836 24.1161 9.29332 24.1161 9.43404V13.9511ZM43.2173 3.2002H39.9748C38.1532 3.20051 36.4062 3.92438 35.1182 5.2126C33.8302 6.50083 33.1067 8.2479 33.1067 10.0696V13.3109C33.1067 15.1324 33.8303 16.8794 35.1183 18.1674C36.4063 19.4555 38.1533 20.1791 39.9748 20.1791H43.2173C45.8422 20.1836 46.1012 16.9446 44.2451 15.0886L43.7939 14.6374C43.7414 14.5892 43.6993 14.5308 43.6699 14.4659C43.6406 14.401 43.6247 14.3308 43.6232 14.2595C43.6217 14.1883 43.6346 14.1175 43.6612 14.0514C43.6877 13.9853 43.7274 13.9252 43.7778 13.8749C43.8282 13.8245 43.8882 13.7848 43.9543 13.7582C44.0204 13.7317 44.0912 13.7187 44.1625 13.7203C44.2337 13.7218 44.3039 13.7377 44.3688 13.767C44.4338 13.7964 44.4921 13.8385 44.5403 13.891L44.9915 14.3422C46.8476 16.1983 50.0866 15.9393 50.082 13.3144V10.0696C50.082 8.24851 49.3589 6.50198 48.0717 5.21385C46.7844 3.92573 45.0384 3.20145 43.2173 3.2002ZM78.5088 11.8929C78.5525 11.9521 78.614 11.9957 78.6843 12.0174L86.0371 14.2825C85.8027 15.9187 84.9863 17.4155 83.7375 18.4984C82.4887 19.5813 80.8913 20.1776 79.2384 20.1779H75.9959C74.1744 20.1779 72.4274 19.4543 71.1394 18.1662C69.8514 16.8782 69.1278 15.1313 69.1278 13.3097V10.0696C69.1276 9.16752 69.3051 8.27428 69.6502 7.44086C69.9953 6.60744 70.5012 5.85015 71.139 5.21226C71.7768 4.57436 72.534 4.06835 73.3673 3.72312C74.2007 3.37789 75.0939 3.2002 75.9959 3.2002H79.2384C80.8913 3.20077 82.4885 3.79716 83.7372 4.87999C84.986 5.96283 85.8025 7.45954 86.0371 9.09564L78.6843 11.3595C78.614 11.3812 78.5525 11.4249 78.5088 11.4841C78.4651 11.5433 78.4416 11.6149 78.4416 11.6885C78.4416 11.762 78.4651 11.8337 78.5088 11.8929ZM84.7118 11.1602H85.5784C85.8702 11.1602 86.1067 11.3965 86.1067 11.6879C86.1067 11.9793 85.8702 12.2155 85.5784 12.2155H84.7118C84.4201 12.2155 84.1836 11.9793 84.1836 11.6879C84.1836 11.3965 84.4201 11.1602 84.7118 11.1602ZM60.1337 4.29203C60.1337 3.68903 60.6225 3.2002 61.2255 3.2002C62.1277 3.20004 63.0211 3.37761 63.8547 3.72276C64.6883 4.06791 65.4457 4.57388 66.0837 5.21177C66.7217 5.84967 67.2278 6.60699 67.5731 7.4405C67.9184 8.27401 68.0961 9.16737 68.0961 10.0696V13.3109C68.0961 14.2129 67.9184 15.1061 67.5732 15.9395C67.2279 16.7729 66.7219 17.5301 66.084 18.1678C65.4461 18.8056 64.6888 19.3115 63.8554 19.6566C63.022 20.0017 62.1288 20.1792 61.2267 20.1791H57.9854C56.1638 20.1791 54.4169 19.4555 53.1288 18.1674C51.8408 16.8794 51.1172 15.1324 51.1172 13.3109V10.0696C51.1172 8.24892 51.84 6.50274 53.1267 5.21469C54.4134 3.92663 56.1589 3.20207 57.9795 3.2002C58.5832 3.2002 59.0725 3.68955 59.0725 4.29321V9.70641C59.0725 9.84713 59.1284 9.98209 59.2279 10.0816C59.3274 10.1811 59.4624 10.237 59.6031 10.237C59.7438 10.237 59.8788 10.1811 59.9783 10.0816C60.0778 9.98209 60.1337 9.84713 60.1337 9.70641V4.29203ZM104.546 3.89473H118.757C118.934 3.89407 119.109 3.93903 119.264 4.0253C119.419 4.11156 119.55 4.23624 119.643 4.38738C119.736 4.53853 119.789 4.71106 119.796 4.88845C119.803 5.06584 119.765 5.24213 119.685 5.40043L112.579 19.6108C112.493 19.7831 112.361 19.9281 112.197 20.0294C112.033 20.1308 111.845 20.1844 111.652 20.1844C111.459 20.1844 111.271 20.1308 111.107 20.0294C110.943 19.9281 110.811 19.7831 110.725 19.6108L103.62 5.39454C103.541 5.23654 103.503 5.06099 103.511 4.88454C103.519 4.70809 103.572 4.5366 103.665 4.38635C103.758 4.23609 103.887 4.11205 104.042 4.02601C104.196 3.93997 104.37 3.89478 104.546 3.89473ZM3.03332 4.59732L3.04297 4.59056C3.80915 4.05389 4.67354 3.67342 5.58679 3.47088C6.50003 3.26834 7.44423 3.2477 8.36545 3.41014C9.28667 3.57257 10.1669 3.9149 10.9558 4.41758C11.7447 4.92025 12.4268 5.57342 12.9632 6.33977C13.0798 6.50627 13.1255 6.71227 13.0902 6.91244C13.0549 7.11262 12.9415 7.29058 12.775 7.40716L12.6523 7.4931C12.2161 7.79848 12.1101 8.39958 12.4155 8.83571L12.4184 8.83371L13.0629 9.75417C13.5722 10.4823 13.933 11.3036 14.1249 12.1713C14.3167 13.0389 14.3357 13.9358 14.1809 14.8108C14.0261 15.6857 13.7004 16.5217 13.2225 17.2708C12.7446 18.0199 12.1238 18.6675 11.3955 19.1766C9.92568 20.2058 8.10719 20.609 6.34009 20.2974C4.573 19.9858 3.00206 18.985 1.97286 17.5152L1.76997 17.2254C1.65339 17.0589 1.60772 16.8529 1.64302 16.6527C1.67831 16.4526 1.79168 16.2746 1.95819 16.158L5.41619 13.7367C5.63425 13.584 5.68724 13.2835 5.53456 13.0654C5.38187 12.8473 5.08132 12.7943 4.86325 12.947L2.35248 14.7051C2.18594 14.8206 1.98045 14.8654 1.78095 14.8297C1.58146 14.7941 1.40421 14.6809 1.28797 14.5149C0.204608 12.9676 -0.21976 11.0534 0.108225 9.19334C0.43621 7.33325 1.48968 5.67963 3.03689 4.59626L3.03332 4.59732ZM91.6395 4.92785L91.6298 4.93457L91.6305 4.93554C90.0817 6.01215 89.024 7.65993 88.6901 9.51638C88.3562 11.3728 88.7734 13.2859 89.85 14.8347C89.9659 15.0014 90.1432 15.1152 90.343 15.1511C90.5428 15.1871 90.7487 15.1422 90.9154 15.0263L93.6789 13.1053C93.8294 13.0007 94.0363 13.0375 94.1414 13.1877C94.2468 13.3382 94.2103 13.5457 94.0597 13.6511L90.4837 16.1551C90.3172 16.2717 90.2038 16.4496 90.1685 16.6498C90.1332 16.85 90.1789 17.056 90.2955 17.2225L90.4984 17.5122C91.5275 18.9821 93.0985 19.9829 94.8656 20.2945C96.6327 20.6061 98.4512 20.2029 99.921 19.1737L99.923 19.1766C101.393 18.1474 102.394 16.5765 102.705 14.8094C103.017 13.0423 102.614 11.2238 101.585 9.75396L100.94 8.8335L100.937 8.83574C100.735 8.54793 100.806 8.15115 101.094 7.9506L101.348 7.77455C101.514 7.65869 101.628 7.48136 101.664 7.28158C101.7 7.08179 101.655 6.87592 101.539 6.70924C101.006 5.94218 100.327 5.28763 99.5414 4.78296C98.7554 4.2783 97.8777 3.93341 96.9584 3.76798C96.0391 3.60256 95.0962 3.61985 94.1835 3.81887C93.2709 4.01788 92.4064 4.39471 91.6395 4.92785Z" fill="#E6E4DC"/>
</g>
<defs>
<clipPath id="clip0_2289_74985">
<rect width="120" height="24" fill="white"/>
</clipPath>
</defs>
</svg>
