<svg width="51" height="21" viewBox="0 0 51 21" fill="none" xmlns="http://www.w3.org/2000/svg">
<path d="M10.92 0.42C10.92 0.18804 10.732 0 10.5 0C10.268 0 10.08 0.188041 10.08 0.420001V4.48C10.08 7.57279 7.57279 10.08 4.48 10.08H0.42C0.18804 10.08 0 10.268 0 10.5C0 10.732 0.18804 10.92 0.42 10.92H4.48C7.57279 10.92 10.08 13.4272 10.08 16.52V20.58C10.08 20.812 10.268 21 10.5 21C10.732 21 10.92 20.812 10.92 20.58V16.52C10.92 13.4272 13.4272 10.92 16.52 10.92H20.58C20.812 10.92 21 10.732 21 10.5C21 10.268 20.812 10.08 20.58 10.08H16.52C13.4272 10.08 10.92 7.57279 10.92 4.48V0.42Z" fill="#73726E"/>
<path d="M40.92 0.42C40.92 0.18804 40.732 0 40.5 0C40.268 0 40.08 0.188041 40.08 0.420001V4.48C40.08 7.57279 37.5728 10.08 34.48 10.08H30.42C30.188 10.08 30 10.268 30 10.5C30 10.732 30.188 10.92 30.42 10.92H34.48C37.5728 10.92 40.08 13.4272 40.08 16.52V20.58C40.08 20.812 40.268 21 40.5 21C40.732 21 40.92 20.812 40.92 20.58V16.52C40.92 13.4272 43.4272 10.92 46.52 10.92H50.58C50.812 10.92 51 10.732 51 10.5C51 10.268 50.812 10.08 50.58 10.08H46.52C43.4272 10.08 40.92 7.57279 40.92 4.48V0.42Z" fill="#73726E"/>
</svg>
