<svg width="89" height="92" viewBox="0 0 89 92" fill="none" xmlns="http://www.w3.org/2000/svg">
<path d="M10.2243 23.6445H3.5V36.1846H10.2243V23.6445Z" fill="black"/>
<mask id="path-2-outside-1_16223_172266" maskUnits="userSpaceOnUse" x="0.5" y="22.6445" width="88" height="70" fill="black">
<rect fill="white" x="0.5" y="22.6445" width="88" height="70"/>
<path fill-rule="evenodd" clip-rule="evenodd" d="M1.5 23.6445H8.22428V28H87.5V91H5.5C3.29086 91 1.5 89.2091 1.5 87V36.1846V28V23.6445Z"/>
</mask>
<path fill-rule="evenodd" clip-rule="evenodd" d="M1.5 23.6445H8.22428V28H87.5V91H5.5C3.29086 91 1.5 89.2091 1.5 87V36.1846V28V23.6445Z" fill="#D59B18"/>
<path d="M8.22428 23.6445H9.22428V22.6445H8.22428V23.6445ZM1.5 23.6445V22.6445H0.5V23.6445H1.5ZM8.22428 28H7.22428V29H8.22428V28ZM87.5 28H88.5V27H87.5V28ZM87.5 91V92H88.5V91H87.5ZM8.22428 22.6445H1.5V24.6445H8.22428V22.6445ZM9.22428 28V23.6445H7.22428V28H9.22428ZM87.5 27H8.22428V29H87.5V27ZM88.5 91V28H86.5V91H88.5ZM5.5 92H87.5V90H5.5V92ZM0.5 87C0.5 89.7614 2.73858 92 5.5 92V90C3.84315 90 2.5 88.6569 2.5 87H0.5ZM0.5 36.1846V87H2.5V36.1846H0.5ZM0.5 28V36.1846H2.5V28H0.5ZM0.5 23.6445V28H2.5V23.6445H0.5Z" fill="#1F1F1E" mask="url(#path-2-outside-1_16223_172266)"/>
<mask id="path-4-outside-2_16223_172266" maskUnits="userSpaceOnUse" x="0.5" y="22.6445" width="88" height="70" fill="black">
<rect fill="white" x="0.5" y="22.6445" width="88" height="70"/>
<path fill-rule="evenodd" clip-rule="evenodd" d="M1.5 23.6445H8.22428V28H87.5V91H5.5C3.29086 91 1.5 89.2091 1.5 87V36.1846V28V23.6445Z"/>
</mask>
<path fill-rule="evenodd" clip-rule="evenodd" d="M1.5 23.6445H8.22428V28H87.5V91H5.5C3.29086 91 1.5 89.2091 1.5 87V36.1846V28V23.6445Z" fill="#428737"/>
<path d="M8.22428 23.6445H9.22428V22.6445H8.22428V23.6445ZM1.5 23.6445V22.6445H0.5V23.6445H1.5ZM8.22428 28H7.22428V29H8.22428V28ZM87.5 28H88.5V27H87.5V28ZM87.5 91V92H88.5V91H87.5ZM8.22428 22.6445H1.5V24.6445H8.22428V22.6445ZM9.22428 28V23.6445H7.22428V28H9.22428ZM87.5 27H8.22428V29H87.5V27ZM88.5 91V28H86.5V91H88.5ZM5.5 92H87.5V90H5.5V92ZM0.5 87C0.5 89.7614 2.73858 92 5.5 92V90C3.84315 90 2.5 88.6569 2.5 87H0.5ZM0.5 36.1846V87H2.5V36.1846H0.5ZM0.5 28V36.1846H2.5V28H0.5ZM0.5 23.6445V28H2.5V23.6445H0.5Z" fill="black" mask="url(#path-4-outside-2_16223_172266)"/>
<path d="M85.5 27.5H86V27V20V19.5H85.5H4.56102C2.59588 19.5 1 21.1771 1 23.1684V23.8316C1 25.8229 2.59588 27.5 4.56102 27.5H85.5Z" fill="black" stroke="black"/>
<rect x="14.75" y="43.25" width="10.5" height="4.5" fill="#D9D9D9" stroke="black" stroke-width="0.5"/>
<rect x="14.75" y="54.25" width="10.5" height="4.5" fill="#CA9824" stroke="black" stroke-width="0.5"/>
<rect x="30.75" y="43.25" width="10.5" height="4.5" fill="#D9D9D9" stroke="black" stroke-width="0.5"/>
<rect x="30.75" y="54.25" width="10.5" height="4.5" fill="#D9D9D9" stroke="black" stroke-width="0.5"/>
<rect x="46.75" y="43.25" width="10.5" height="4.5" fill="#D9D9D9" stroke="black" stroke-width="0.5"/>
<rect x="46.75" y="54.25" width="10.5" height="4.5" fill="#D9D9D9" stroke="black" stroke-width="0.5"/>
<rect x="25.75" y="71.25" width="36.5" height="4.5" fill="#1F1F1E" stroke="#1F1F1E" stroke-width="0.5"/>
<rect x="62.75" y="43.25" width="10.5" height="4.5" fill="#D9D9D9" stroke="black" stroke-width="0.5"/>
<rect x="62.75" y="54.25" width="10.5" height="4.5" fill="#CA9824" stroke="black" stroke-width="0.5"/>
<mask id="mask0_16223_172266" style="mask-type:alpha" maskUnits="userSpaceOnUse" x="9" y="0" width="70" height="27">
<path d="M9.5 27H78.5V0H9.5L9.5 27Z" fill="#D9D9D9"/>
</mask>
<g mask="url(#mask0_16223_172266)">
<path d="M66.6721 33.5059C63.6062 45.8025 51.1503 53.2859 38.8509 50.2196C26.5567 47.154 19.0724 34.6988 22.1396 22.4032C25.2042 10.1053 37.6601 2.62125 49.9557 5.68684C62.2542 8.75243 69.7384 21.2088 66.6721 33.5059Z" fill="#C1BFB3" stroke="#292422" stroke-width="0.5"/>
<path d="M66.5081 33.4912C63.4795 45.6382 51.1753 53.0306 39.0256 50.0015C26.881 46.9732 19.4878 34.6695 22.5178 22.5236C25.545 10.3753 37.8492 2.98234 49.9952 6.01063C62.144 9.03892 69.537 21.3437 66.5081 33.4912Z" fill="#E7E5DA" stroke="black" stroke-width="0.5"/>
<path d="M63.2088 32.6685C60.6345 42.9934 50.1759 49.2769 39.8487 46.7022C29.5258 44.1282 23.2416 33.67 25.817 23.346C28.3902 13.0199 38.8488 6.73592 49.1728 9.30997C59.4993 11.884 65.7834 22.3431 63.2088 32.6685Z" fill="#CA9824" stroke="#292422" stroke-width="0.5"/>
<path fill-rule="evenodd" clip-rule="evenodd" d="M47.4415 17.6536H40.1368C39.8647 17.6536 39.6441 17.8742 39.6441 18.1463V20.6928L39.64 20.6969V20.7531C39.6398 21.0453 39.5238 21.3254 39.3174 21.5323C39.1327 21.7174 38.8891 21.8302 38.6305 21.8524H35.9917C35.7196 21.8524 35.499 22.073 35.499 22.3451V33.7988C35.499 34.0709 35.7196 34.2915 35.9917 34.2915H39.2052C39.4773 34.2915 39.6979 34.0709 39.6979 33.7988V22.9828L39.6986 22.9821C39.6986 22.9763 39.6984 22.9718 39.6982 22.9678L39.6982 22.9678L39.6979 22.9632V22.9463C39.7017 22.6585 39.8177 22.3833 40.0215 22.1796C40.2284 21.9729 40.5088 21.8567 40.8012 21.8565H40.8218L40.8258 21.8525H46.7489L46.7538 21.8571H46.8266C47.1193 21.8571 47.4001 21.9733 47.6071 22.1802C47.8142 22.3871 47.9306 22.6678 47.9308 22.9605V23.0342L47.9341 23.0374V25.0401C47.9099 25.2946 47.7979 25.5341 47.6156 25.7164C47.483 25.849 47.3203 25.9444 47.1434 25.9958H42.7023C42.4302 25.9958 42.2096 26.2164 42.2096 26.4885V29.7021C42.2096 29.9742 42.4302 30.1947 42.7023 30.1947H47.4993C47.7714 30.1947 47.9919 29.9742 47.9919 29.7021V27.1679L47.9945 27.1654C47.9968 27.1575 47.9968 27.1496 47.9968 27.1432C47.9968 26.8504 48.1132 26.5695 48.3202 26.3625C48.4882 26.1945 48.7047 26.0863 48.9367 26.0513H51.6403C51.9124 26.0513 52.133 25.8308 52.133 25.5587V22.3451C52.133 22.073 51.9124 21.8524 51.6403 21.8524H48.9654C48.6987 21.8352 48.4463 21.7217 48.2561 21.5316C48.0638 21.3395 47.9497 21.0838 47.9342 20.8139V18.1463C47.9342 17.8742 47.7136 17.6536 47.4415 17.6536Z" fill="#292422"/>
</g>
</svg>
